<svg width="160" height="32" viewBox="0 0 160 32" fill="none" xmlns="http://www.w3.org/2000/svg">
<path d="M7.936 2.144C6.42133 2.72 5.248 3.616 4.416 4.832C3.584 6.02667 3.168 7.49867 3.168 9.248C3.168 10.0373 3.24267 10.592 3.392 10.912C3.54133 11.2107 3.616 11.3813 3.616 11.424C2.464 11.424 1.6 11.1893 1.024 10.72C0.469333 10.2293 0.192 9.42933 0.192 8.32C0.192 6.95467 0.746667 5.632 1.856 4.352C2.98667 3.05067 4.42667 2.00533 6.176 1.216C7.92533 0.405332 9.67467 -1.90735e-06 11.424 -1.90735e-06C11.7227 -1.90735e-06 12.1493 0.0213318 12.704 0.0639992L12.992 19.744L19.712 0.159998H23.776L24.064 19.744L30.784 0.159998H33.024L24.128 24H19.52L19.136 7.712L13.056 24H8.448L7.936 2.144ZM35.3573 24.192C33.7786 24.192 32.5519 23.7867 31.6773 22.976C30.8026 22.144 30.3652 20.8533 30.3652 19.104C30.3652 17.632 30.6532 16.0107 31.2293 14.24C31.8053 12.4693 32.7439 10.944 34.0453 9.664C35.3466 8.36267 36.9999 7.712 39.0052 7.712C41.3519 7.712 42.5253 8.736 42.5253 10.784C42.5253 11.9787 42.1839 13.0773 41.5013 14.08C40.8186 15.0827 39.9119 15.8933 38.7812 16.512C37.6506 17.1093 36.4453 17.4507 35.1653 17.536C35.1226 18.176 35.1013 18.6027 35.1013 18.816C35.1013 19.8613 35.2826 20.576 35.6453 20.96C36.0079 21.3227 36.5946 21.504 37.4053 21.504C38.5573 21.504 39.5386 21.2373 40.3493 20.704C41.1813 20.1707 42.0879 19.36 43.0693 18.272H44.1573C41.7893 22.2187 38.8559 24.192 35.3573 24.192ZM35.4213 16C36.2106 15.9573 36.9573 15.68 37.6613 15.168C38.3866 14.656 38.9626 14.0053 39.3893 13.216C39.8373 12.4267 40.0613 11.5947 40.0613 10.72C40.0613 9.84533 39.7946 9.408 39.2613 9.408C38.4933 9.408 37.7359 10.08 36.9893 11.424C36.2639 12.768 35.7413 14.2933 35.4213 16ZM46.9025 24.192C45.6865 24.192 44.6732 23.776 43.8625 22.944C43.0518 22.112 42.6465 20.8107 42.6465 19.04C42.6465 17.4613 42.9558 15.808 43.5745 14.08C44.2145 12.3307 45.1532 10.8587 46.3905 9.664C47.6492 8.448 49.1425 7.84 50.8705 7.84C51.7452 7.84 52.3958 7.98933 52.8225 8.288C53.2492 8.58667 53.4625 8.98133 53.4625 9.472V9.696L53.8145 8H58.4225L56.1185 18.88C56.0332 19.2 55.9905 19.5413 55.9905 19.904C55.9905 20.8213 56.4278 21.28 57.3025 21.28C57.8998 21.28 58.4118 21.0027 58.8385 20.448C59.2865 19.8933 59.6385 19.168 59.8945 18.272H61.2385C60.4492 20.576 59.4678 22.144 58.2945 22.976C57.1425 23.7867 55.9798 24.192 54.8065 24.192C53.9105 24.192 53.1852 23.9467 52.6305 23.456C52.0972 22.944 51.7772 22.208 51.6705 21.248C51.0518 22.1227 50.3585 22.8373 49.5905 23.392C48.8438 23.9253 47.9478 24.192 46.9025 24.192ZM48.9825 21.088C49.5158 21.088 50.0385 20.8427 50.5505 20.352C51.0838 19.84 51.4465 19.1467 51.6385 18.272L53.1745 11.04C53.1745 10.7627 53.0678 10.496 52.8545 10.24C52.6412 9.96267 52.3105 9.824 51.8625 9.824C51.0092 9.824 50.2412 10.3253 49.5585 11.328C48.8758 12.3093 48.3425 13.504 47.9585 14.912C47.5745 16.2987 47.3825 17.5253 47.3825 18.592C47.3825 19.6587 47.5318 20.3413 47.8305 20.64C48.1505 20.9387 48.5345 21.088 48.9825 21.088ZM63.0743 24.192C62.0503 24.192 61.2183 23.872 60.5783 23.232C59.9596 22.592 59.6502 21.632 59.6502 20.352C59.6502 19.8187 59.7356 19.1253 59.9062 18.272L61.8263 9.28H60.7703L61.0263 8H62.0823L63.0423 3.584L67.7783 2.944L66.6903 8H68.6103L68.3542 9.28H66.4343L64.3863 18.88C64.3009 19.2 64.2583 19.5413 64.2583 19.904C64.2583 20.3307 64.3543 20.64 64.5463 20.832C64.7596 21.0027 65.1009 21.088 65.5703 21.088C66.1889 21.088 66.7649 20.832 67.2983 20.32C67.8316 19.7867 68.2156 19.104 68.4503 18.272H69.7943C69.0049 20.576 67.9916 22.144 66.7543 22.976C65.5169 23.7867 64.2903 24.192 63.0743 24.192ZM79.9895 24.192C78.6882 24.192 77.7282 23.8507 77.1095 23.168C76.5122 22.464 76.2135 21.6 76.2135 20.576C76.2135 20.128 76.2668 19.6267 76.3735 19.072C76.4802 18.496 76.5868 17.9413 76.6935 17.408C76.8215 16.8747 76.9068 16.5333 76.9495 16.384C77.1202 15.6373 77.2802 14.9013 77.4295 14.176C77.5788 13.4507 77.6535 12.864 77.6535 12.416C77.6535 11.328 77.2695 10.784 76.5015 10.784C75.9468 10.784 75.4562 11.0613 75.0295 11.616C74.6028 12.1493 74.2615 12.8533 74.0055 13.728L71.8295 24H67.2215L71.8615 2.24L76.5975 1.6L74.8695 9.664C75.9362 8.46933 77.1842 7.872 78.6135 7.872C79.7015 7.872 80.5655 8.17067 81.2055 8.768C81.8455 9.36533 82.1655 10.272 82.1655 11.488C82.1655 12.1067 82.0908 12.8 81.9415 13.568C81.7922 14.3147 81.5788 15.232 81.3015 16.32C81.1308 16.9813 80.9708 17.632 80.8215 18.272C80.6935 18.8907 80.6295 19.3813 80.6295 19.744C80.6295 20.1707 80.7255 20.5013 80.9175 20.736C81.1095 20.9707 81.4402 21.088 81.9095 21.088C82.5495 21.088 83.0615 20.864 83.4455 20.416C83.8295 19.9467 84.2135 19.232 84.5975 18.272H85.9415C85.1522 20.6187 84.2348 22.1973 83.1895 23.008C82.1655 23.7973 81.0988 24.192 79.9895 24.192ZM89.1698 24.192C87.5911 24.192 86.3644 23.7867 85.4898 22.976C84.6151 22.144 84.1777 20.8533 84.1777 19.104C84.1777 17.632 84.4657 16.0107 85.0418 14.24C85.6178 12.4693 86.5564 10.944 87.8578 9.664C89.1591 8.36267 90.8124 7.712 92.8177 7.712C95.1644 7.712 96.3378 8.736 96.3378 10.784C96.3378 11.9787 95.9964 13.0773 95.3138 14.08C94.6311 15.0827 93.7244 15.8933 92.5938 16.512C91.4631 17.1093 90.2578 17.4507 88.9778 17.536C88.9351 18.176 88.9138 18.6027 88.9138 18.816C88.9138 19.8613 89.0951 20.576 89.4578 20.96C89.8204 21.3227 90.4071 21.504 91.2178 21.504C92.3698 21.504 93.3511 21.2373 94.1618 20.704C94.9938 20.1707 95.9004 19.36 96.8818 18.272H97.9698C95.6018 22.2187 92.6684 24.192 89.1698 24.192ZM89.2338 16C90.0231 15.9573 90.7698 15.68 91.4738 15.168C92.1991 14.656 92.7751 14.0053 93.2018 13.216C93.6498 12.4267 93.8738 11.5947 93.8738 10.72C93.8738 9.84533 93.6071 9.408 93.0738 9.408C92.3058 9.408 91.5484 10.08 90.8018 11.424C90.0764 12.768 89.5538 14.2933 89.2338 16ZM99.051 8H103.659L103.243 9.984C103.968 9.344 104.619 8.85333 105.195 8.512C105.792 8.17067 106.432 8 107.115 8C107.798 8 108.331 8.23467 108.715 8.704C109.12 9.17333 109.323 9.73867 109.323 10.4C109.323 11.0187 109.12 11.5627 108.715 12.032C108.31 12.5013 107.744 12.736 107.019 12.736C106.55 12.736 106.23 12.6293 106.059 12.416C105.91 12.1813 105.792 11.8507 105.707 11.424C105.643 11.1467 105.579 10.944 105.515 10.816C105.451 10.688 105.334 10.624 105.163 10.624C104.715 10.624 104.331 10.72 104.011 10.912C103.712 11.0827 103.318 11.392 102.827 11.84L100.267 24H95.659L99.051 8Z" fill="#0A023D"/>
<path d="M115.882 27.648C115.093 27.648 114.4 27.584 113.802 27.456C113.205 27.328 112.682 27.0187 112.234 26.528C111.808 26.0373 111.594 25.28 111.594 24.256C111.594 22.8267 112.021 20.9067 112.874 18.496C113.749 16.0853 114.89 13.664 116.298 11.232C115.232 11.296 114.389 11.456 113.77 11.712C113.152 11.968 112.746 12.3627 112.554 12.896C112.64 12.896 112.725 13.0027 112.81 13.216C112.917 13.4293 112.97 13.6533 112.97 13.888C112.97 14.272 112.8 14.5813 112.458 14.816C112.117 15.0293 111.69 15.136 111.178 15.136C110.581 15.136 110.101 14.976 109.738 14.656C109.376 14.336 109.194 13.8773 109.194 13.28C109.194 12.5547 109.472 11.8933 110.026 11.296C110.602 10.6987 111.392 10.2293 112.394 9.888C113.397 9.52533 114.506 9.344 115.722 9.344C116.17 9.344 116.725 9.376 117.386 9.44C119.136 6.66667 120.981 4.40533 122.922 2.656C124.885 0.885331 126.752 -1.90735e-06 128.522 -1.90735e-06C129.546 -1.90735e-06 130.389 0.149331 131.05 0.447998L126.026 24H121.418L123.882 12.384C123.093 12.0213 122.368 11.7547 121.706 11.584C121.045 11.4133 120.341 11.296 119.594 11.232C118.378 13.856 117.376 16.544 116.586 19.296C115.818 22.0267 115.434 24.2133 115.434 25.856C115.434 26.6667 115.584 27.264 115.882 27.648ZM126.026 2.272C125.109 2.76267 124.149 3.68 123.146 5.024C122.165 6.34667 121.205 7.95733 120.266 9.856C121.802 10.1547 123.104 10.528 124.17 10.976L126.026 2.272ZM132.713 6.816H137.321L136.809 9.216C137.876 8.29867 139.124 7.84 140.553 7.84C141.748 7.84 142.697 8.23467 143.401 9.024C144.105 9.81333 144.457 11.104 144.457 12.896C144.457 14.5813 144.212 16.288 143.721 18.016C143.231 19.7227 142.399 21.184 141.225 22.4C140.052 23.5947 138.505 24.192 136.585 24.192C135.22 24.192 134.313 23.808 133.865 23.04L132.201 30.848L127.369 32L132.713 6.816ZM135.593 21.408C136.617 21.408 137.46 20.928 138.121 19.968C138.804 19.008 139.295 17.8667 139.593 16.544C139.913 15.2 140.073 13.952 140.073 12.8C140.073 11.0293 139.54 10.144 138.473 10.144C138.089 10.144 137.695 10.2827 137.289 10.56C136.905 10.8373 136.564 11.2213 136.265 11.712L134.377 20.672C134.548 21.1627 134.953 21.408 135.593 21.408ZM147.682 6.816H152.29L151.778 9.216C152.845 8.29867 154.093 7.84 155.522 7.84C156.717 7.84 157.666 8.23467 158.37 9.024C159.074 9.81333 159.426 11.104 159.426 12.896C159.426 14.5813 159.181 16.288 158.69 18.016C158.199 19.7227 157.367 21.184 156.194 22.4C155.021 23.5947 153.474 24.192 151.554 24.192C150.189 24.192 149.282 23.808 148.834 23.04L147.17 30.848L142.338 32L147.682 6.816ZM150.562 21.408C151.586 21.408 152.429 20.928 153.09 19.968C153.773 19.008 154.263 17.8667 154.562 16.544C154.882 15.2 155.042 13.952 155.042 12.8C155.042 11.0293 154.509 10.144 153.442 10.144C153.058 10.144 152.663 10.2827 152.258 10.56C151.874 10.8373 151.533 11.2213 151.234 11.712L149.346 20.672C149.517 21.1627 149.922 21.408 150.562 21.408Z" fill="#B92D01"/>
</svg>
